<svg width="21" height="21" viewBox="0 0 21 21" fill="none" xmlns="http://www.w3.org/2000/svg">
<path fill-rule="evenodd" clip-rule="evenodd" d="M10.5 19.25C15.3325 19.25 19.25 15.3325 19.25 10.5C19.25 5.66751 15.3325 1.75 10.5 1.75C5.66751 1.75 1.75 5.66751 1.75 10.5C1.75 15.3325 5.66751 19.25 10.5 19.25ZM11.1562 7.875C11.1562 7.51256 10.8624 7.21875 10.5 7.21875C10.1376 7.21875 9.84375 7.51256 9.84375 7.875L9.84375 9.84377H7.875C7.51256 9.84377 7.21875 10.1376 7.21875 10.5C7.21875 10.8625 7.51256 11.1563 7.875 11.1563H9.84375V13.125C9.84375 13.4874 10.1376 13.7812 10.5 13.7812C10.8624 13.7812 11.1562 13.4874 11.1562 13.125L11.1562 11.1563H13.125C13.4874 11.1563 13.7812 10.8625 13.7812 10.5C13.7812 10.1376 13.4874 9.84377 13.125 9.84377H11.1562V7.875Z" fill="white" fill-opacity="0.65"/>
</svg>
