<svg width="20" height="20" viewBox="0 0 20 20" fill="none" xmlns="http://www.w3.org/2000/svg">
<path fill-rule="evenodd" clip-rule="evenodd" d="M10.0001 18.3332C14.6025 18.3332 18.3334 14.6022 18.3334 9.99984C18.3334 5.39746 14.6025 1.6665 10.0001 1.6665C5.39771 1.6665 1.66675 5.39746 1.66675 9.99984C1.66675 14.6022 5.39771 18.3332 10.0001 18.3332ZM10.3915 7.0579C10.6356 6.81382 11.0313 6.81382 11.2754 7.0579L13.7754 9.55789C14.0194 9.80197 14.0194 10.1977 13.7754 10.4418L11.2754 12.9418C11.0313 13.1859 10.6356 13.1859 10.3915 12.9418C10.1474 12.6977 10.1474 12.302 10.3915 12.0579L11.8245 10.6248H6.66675C6.32157 10.6248 6.04175 10.345 6.04175 9.99984C6.04175 9.65466 6.32157 9.37484 6.66675 9.37484H11.8245L10.3915 7.94178C10.1474 7.6977 10.1474 7.30197 10.3915 7.0579Z" fill="white"/>
</svg>
