<svg width="52" height="52" viewBox="0 0 52 52" fill="none" xmlns="http://www.w3.org/2000/svg">
<path fill-rule="evenodd" clip-rule="evenodd" d="M47.3009 26.2787C47.1284 38.0135 37.4756 47.3865 25.7408 47.214C14.006 47.0415 4.63296 37.3887 4.80547 25.654C4.97798 13.9192 14.6307 4.5461 26.3655 4.71861C38.1003 4.89112 47.4734 14.5439 47.3009 26.2787ZM34.7114 19.6534C35.3245 20.2849 35.3097 21.2939 34.6782 21.9071L23.8982 32.3748C23.2667 32.988 22.2577 32.9731 21.6445 32.3417L17.4575 28.0296C16.8443 27.3982 16.8591 26.3892 17.4906 25.776C18.1221 25.1628 19.1311 25.1776 19.7443 25.8091L22.8211 28.9777L27.6394 24.299L32.4577 19.6203C33.0892 19.0071 34.0982 19.022 34.7114 19.6534Z" fill="white" fill-opacity="0.41"/>
</svg>
