<svg width="53" height="53" viewBox="0 0 53 53" fill="none" xmlns="http://www.w3.org/2000/svg">
<g clip-path="url(#clip0_116_2349)">
<path d="M30.1803 48.9557V40.1125C30.1803 38.9126 31.1529 37.9407 32.3521 37.9407C36.6311 37.9407 38.9589 33.5523 39.282 24.8894H32.3521C31.1531 24.8894 30.1803 23.9162 30.1803 22.7176V4.0447C30.1803 2.84526 31.1529 1.8734 32.3521 1.8734H50.8281C52.0269 1.8734 53 2.84632 53 4.0447V22.7178C53 26.8702 52.5808 30.6806 51.7579 34.0459C50.9125 37.4957 49.6148 40.5118 47.9017 43.0112C46.1399 45.5797 43.9342 47.5952 41.3496 48.9989C38.7454 50.4115 35.7183 51.1284 32.3512 51.1284C31.1531 51.1275 30.1803 50.1547 30.1803 48.9557ZM2.1713 37.94C0.97231 37.94 0 38.9126 0 40.1108V48.9559C0 50.1547 0.97231 51.1267 2.1713 51.1267C5.53673 51.1267 8.56541 50.4096 11.1679 48.9972C13.7538 47.5937 15.9593 45.5798 17.721 43.0095C19.4351 40.5101 20.7326 37.4939 21.578 34.0424C22.4014 30.6771 22.8197 26.8665 22.8197 22.716V4.04288C22.8197 2.84344 21.8465 1.87158 20.6479 1.87158H2.1713C0.97231 1.87158 0 2.84435 0 4.04288V22.716C0 23.9153 0.97231 24.8877 2.1713 24.8877H9.00389C8.68474 33.5514 6.39046 37.94 2.1713 37.94Z" fill="#3A444F"/>
</g>
<defs>
<clipPath id="clip0_116_2349">
<rect width="53" height="53" fill="white"/>
</clipPath>
</defs>
</svg>
