<svg width="849" height="629" viewBox="0 0 849 629" fill="none" xmlns="http://www.w3.org/2000/svg">
<path d="M714.851 195.988C702.366 198.303 693.626 190.895 690.635 176.426L696.889 175.266C699.072 185.888 704.52 189.549 708.344 189.803L705.357 173.695L711.245 172.603L712.951 181.797C716.483 180.733 719.495 175.84 719.918 170.994L725.807 169.902C725.769 172.382 725.228 174.823 724.22 177.073C723.211 179.324 721.756 181.334 719.946 182.98C722.443 183.713 724.764 184.977 726.754 186.687C728.743 188.398 730.357 190.516 731.489 192.902L725.007 194.104C724.005 192.035 722.427 190.309 720.472 189.143C718.517 187.976 716.272 187.421 714.017 187.547L715.558 195.857L714.851 195.988Z" fill="#007AFF"/>
<path d="M237.471 68.5678C225.048 65.7462 219.935 55.4514 222.923 40.9319L229.146 42.3453C226.94 52.9994 230.507 58.5347 233.931 60.2864L237.571 44.2591L243.43 45.5899L241.352 54.7385C245.03 55.1598 249.747 51.8471 252.06 47.5501L257.92 48.881C256.9 51.1505 255.433 53.1855 253.611 54.8586C251.789 56.5317 249.65 57.8069 247.328 58.6046C249.339 60.2718 250.975 62.357 252.13 64.7227C253.284 67.0883 253.931 69.6805 254.027 72.3283L247.577 70.8633C247.474 68.5591 246.706 66.3428 245.367 64.492C244.029 62.6413 242.18 61.2384 240.053 60.4593L238.175 68.7277L237.471 68.5678Z" fill="#007AFF"/>
<path d="M616.133 463.784C606.593 468.297 597.997 464.2 592.521 453.208L597.299 450.948C601.309 459.02 606.464 460.805 609.592 460.196L603.77 447.888L608.27 445.76L611.593 452.785C614.205 451.18 615.586 446.609 614.897 442.625L619.397 440.497C619.893 442.497 619.977 444.574 619.645 446.596C619.312 448.618 618.57 450.543 617.465 452.25C619.628 452.309 621.76 452.831 623.723 453.783C625.685 454.735 627.432 456.094 628.848 457.771L623.895 460.114C622.65 458.664 621.015 457.612 619.197 457.09C617.378 456.568 615.456 456.599 613.671 457.179L616.674 463.529L616.133 463.784Z" fill="#007AFF"/>
<path d="M73.5111 534.177C63.2197 531.84 58.9841 523.311 61.459 511.282L66.6141 512.453C64.7873 521.28 67.7423 525.865 70.5782 527.316L73.5941 514.039L78.4482 515.141L76.7267 522.72C79.7734 523.069 83.681 520.325 85.5975 516.765L90.4516 517.868C89.607 519.748 88.3919 521.434 86.8821 522.82C85.3724 524.206 83.6006 525.262 81.6774 525.923C83.3428 527.304 84.6985 529.032 85.6551 530.992C86.6116 532.951 87.1472 535.099 87.2266 537.292L81.8834 536.079C81.7984 534.17 81.1617 532.334 80.0529 530.801C78.944 529.267 77.4125 528.105 75.6502 527.46L74.0943 534.31L73.5111 534.177Z" fill="#007AFF"/>
<path d="M283.518 628.186C272.965 628.186 266.945 620.807 266.695 608.529L271.981 608.529C272.155 617.541 276.052 621.358 279.139 622.145L279.139 608.529L284.116 608.529L284.116 616.301C287.165 615.967 290.368 612.425 291.448 608.529L296.426 608.529C296.019 610.55 295.207 612.463 294.042 614.149C292.877 615.835 291.383 617.258 289.654 618.328C291.584 619.306 293.288 620.69 294.655 622.39C296.022 624.089 297.02 626.064 297.583 628.186L292.104 628.186C291.598 626.343 290.571 624.694 289.15 623.444C287.729 622.195 285.978 621.4 284.116 621.161L284.116 628.186L283.518 628.186Z" fill="#007AFF"/>
<path fill-rule="evenodd" clip-rule="evenodd" d="M81.3791 402.705C80.646 402.714 79.9238 402.551 79.2734 402.228C78.6229 401.905 78.0634 401.432 77.642 400.85C75.3439 397.877 70.6226 383.954 72.1843 380.433C72.7104 379.282 73.6757 378.374 74.8706 377.908C81.152 375.215 101.239 369.092 103.797 369.196C104.508 369.2 105.207 369.363 105.841 369.671C106.476 369.979 107.029 370.424 107.459 370.974C109.909 374.025 113.868 386.64 113.297 390.477C113.14 391.478 112.645 392.403 111.891 393.103C109.837 395.034 84.9071 402.732 81.3791 402.705ZM89.6472 392.924L99.4529 383.413L85.9738 381.066L89.6472 392.924Z" fill="#007AFF"/>
<path fill-rule="evenodd" clip-rule="evenodd" d="M518.905 574.591C518.206 574.057 517.645 573.367 517.269 572.58C516.894 571.794 516.716 570.933 516.749 570.07C516.78 565.559 522.637 548.906 526.721 546.737C528.071 546.039 529.655 545.897 531.13 546.341C539.059 548.452 562.574 557.551 564.913 559.544C565.582 560.075 566.122 560.746 566.493 561.507C566.864 562.268 567.056 563.099 567.055 563.937C567.11 568.634 561.502 583.487 558.12 586.688C557.23 587.518 556.077 588.025 554.846 588.128C551.475 588.43 522.218 577.231 518.905 574.591ZM533.964 571.477L550.275 569.757L539.28 557.552L533.964 571.477Z" fill="#007AFF"/>
<path fill-rule="evenodd" clip-rule="evenodd" d="M729.949 490.948C729.326 490.567 728.803 490.047 728.425 489.431C728.048 488.815 727.826 488.122 727.779 487.41C727.417 483.697 730.817 469.51 734.003 467.383C735.057 466.696 736.353 466.446 737.609 466.688C744.338 467.759 764.538 473.271 766.641 474.714C767.239 475.095 767.743 475.602 768.115 476.197C768.486 476.792 768.717 477.459 768.788 478.149C769.238 482.007 765.887 494.693 763.37 497.61C762.707 498.367 761.799 498.881 760.791 499.069C758.034 499.6 732.912 492.842 729.949 490.948ZM742.115 487.124L755.434 484.342L745.304 475.225L742.115 487.124Z" fill="#007AFF"/>
<path d="M815.67 344.51L808.786 379.498C808.786 379.498 807.822 381.924 805.176 380.76L789.291 368.483L789.217 368.447C791.363 366.504 808.002 351.424 808.729 350.74C809.855 349.682 809.156 349.051 807.849 349.851L783.271 365.585L773.789 362.369C773.789 362.369 772.297 361.834 772.154 360.67C772.008 359.505 773.839 358.875 773.839 358.875L812.493 343.589C812.493 343.589 815.67 342.181 815.67 344.51Z" fill="#007AFF"/>
<path d="M537.92 43.7271L507.217 61.8622C507.217 61.8622 504.765 62.7567 503.873 60.007L502.473 39.9792L502.451 39.9002C505.328 40.2102 527.656 42.6008 528.651 42.689C530.19 42.8253 530.196 41.8842 528.729 41.4403L500.632 33.5569L496.725 24.338C496.725 24.338 496.132 22.868 496.905 21.9868C497.678 21.103 499.367 22.0503 499.367 22.0503L536.495 40.742C536.495 40.742 539.659 42.1779 537.92 43.7271Z" fill="#007AFF"/>
<path d="M111.748 153.744L79.0761 168.029C79.0761 168.029 76.5339 168.621 75.9815 165.783L77.015 145.733L77.0028 145.652C79.8216 146.308 101.696 151.383 102.673 151.591C104.184 151.913 104.304 150.979 102.901 150.361L75.965 139.135L73.2029 129.511C73.2029 129.511 72.792 127.98 73.6661 127.199C74.5407 126.415 76.1017 127.56 76.1017 127.56L110.694 150.608C110.694 150.608 113.662 152.416 111.748 153.744Z" fill="#007AFF"/>
<path d="M390.249 477.893L383.365 512.881C383.365 512.881 382.401 515.307 379.755 514.143L363.87 501.866L363.796 501.83C365.942 499.887 382.581 484.807 383.308 484.123C384.434 483.065 383.735 482.434 382.428 483.234L357.85 498.968L348.368 495.752C348.368 495.752 346.876 495.217 346.733 494.053C346.587 492.888 348.417 492.258 348.417 492.258L387.072 476.972C387.072 476.972 390.249 475.565 390.249 477.893Z" fill="#007AFF"/>
<path d="M506.815 475.245C509.698 475.95 510.092 476.047 511.271 476.335C512.32 476.592 512.78 476.982 513.141 477.21C513.601 477.6 513.962 477.827 514.259 478.317C514.556 478.806 514.722 479.264 514.725 479.82C514.759 480.245 514.762 480.801 514.637 481.882C514.348 483.062 514.284 483.324 513.546 486.338C512.808 489.353 512.744 489.615 512.455 490.794C512.199 491.843 511.808 492.303 511.581 492.664C511.19 493.124 510.963 493.485 510.474 493.782C509.984 494.079 509.527 494.245 508.971 494.248C508.545 494.283 507.989 494.285 506.908 494.16C505.729 493.871 505.467 493.807 502.452 493.069C499.438 492.331 499.176 492.267 497.996 491.978C496.948 491.722 496.488 491.331 496.127 491.104C495.666 490.714 495.305 490.486 495.008 489.997C494.711 489.508 494.546 489.05 494.543 488.494C494.508 488.069 494.505 487.512 494.631 486.432C494.919 485.252 494.984 484.99 495.721 481.976C496.459 478.961 496.523 478.699 496.812 477.519C497.069 476.471 497.459 476.011 497.686 475.65C498.077 475.19 498.304 474.829 498.794 474.532C499.283 474.235 499.74 474.069 500.297 474.066C500.722 474.031 501.278 474.028 502.359 474.154C503.538 474.443 503.932 474.539 506.815 475.245ZM507.296 473.279C504.282 472.541 504.02 472.477 502.84 472.188C501.66 471.899 500.81 471.969 500.09 472.071C499.371 472.172 498.619 472.405 497.804 472.9C496.988 473.395 496.598 473.855 496.012 474.545C495.589 475.136 495.266 475.891 494.846 477.038C494.557 478.218 494.461 478.611 493.755 481.494C493.018 484.509 492.954 484.771 492.665 485.951C492.376 487.13 492.446 487.981 492.548 488.7C492.649 489.42 492.882 490.171 493.377 490.987C493.872 491.803 494.332 492.193 495.022 492.779C495.613 493.201 496.368 493.525 497.515 493.944C498.695 494.233 499.088 494.329 501.971 495.035C504.855 495.741 505.248 495.837 506.427 496.126C507.607 496.414 508.457 496.345 509.177 496.243C509.896 496.141 510.648 495.909 511.464 495.414C512.279 494.919 512.67 494.459 513.255 493.768C513.678 493.177 514.001 492.423 514.421 491.275C514.71 490.096 514.806 489.703 515.512 486.819C516.218 483.936 516.314 483.543 516.603 482.363C516.891 481.184 516.822 480.333 516.72 479.614C516.618 478.894 516.385 478.143 515.89 477.327C515.395 476.511 514.935 476.121 514.245 475.535C513.654 475.113 512.9 474.789 511.752 474.369C510.573 474.081 510.311 474.016 507.296 473.279Z" fill="#007AFF"/>
<path d="M506.013 478.521C502.868 477.751 499.768 479.632 498.998 482.778C498.228 485.923 500.109 489.023 503.254 489.793C506.4 490.562 509.499 488.682 510.269 485.536C511.039 482.391 509.159 479.291 506.013 478.521ZM503.735 487.827C501.77 487.345 500.451 485.356 500.964 483.259C501.445 481.293 503.435 479.974 505.532 480.487C507.498 480.968 508.817 482.958 508.303 485.055C507.822 487.021 505.701 488.308 503.735 487.827Z" fill="#007AFF"/>
<path d="M511.491 481.112C512.215 481.289 512.945 480.846 513.122 480.122C513.3 479.399 512.856 478.668 512.133 478.491C511.409 478.314 510.678 478.757 510.501 479.481C510.324 480.205 510.767 480.935 511.491 481.112Z" fill="#007AFF"/>
<path d="M837.043 512.897C840.01 512.786 840.414 512.77 841.628 512.725C842.706 512.684 843.256 512.934 843.665 513.054C844.215 513.303 844.624 513.423 845.044 513.812C845.464 514.201 845.749 514.596 845.904 515.13C846.054 515.529 846.209 516.064 846.384 517.137C846.43 518.351 846.44 518.62 846.556 521.722C846.673 524.823 846.683 525.093 846.728 526.306C846.769 527.385 846.519 527.934 846.4 528.344C846.15 528.893 846.031 529.303 845.641 529.723C845.252 530.142 844.857 530.427 844.323 530.582C843.924 530.732 843.389 530.887 842.316 531.063C841.102 531.108 840.833 531.118 837.731 531.235C834.63 531.351 834.36 531.361 833.147 531.407C832.068 531.447 831.519 531.198 831.109 531.078C830.56 530.829 830.15 530.709 829.731 530.32C829.311 529.93 829.026 529.536 828.871 529.002C828.721 528.602 828.566 528.068 828.39 526.994C828.345 525.781 828.335 525.511 828.218 522.41C828.102 519.309 828.092 519.039 828.046 517.825C828.006 516.747 828.255 516.197 828.375 515.788C828.624 515.238 828.744 514.829 829.133 514.409C829.523 513.989 829.917 513.705 830.451 513.549C830.851 513.399 831.385 513.244 832.459 513.069C833.672 513.023 834.077 513.008 837.043 512.897ZM836.967 510.874C833.866 510.991 833.596 511.001 832.383 511.046C831.169 511.092 830.37 511.392 829.706 511.687C829.042 511.982 828.383 512.412 827.734 513.111C827.086 513.811 826.836 514.36 826.462 515.184C826.218 515.869 826.113 516.683 826.024 517.901C826.069 519.115 826.085 519.519 826.196 522.486C826.312 525.587 826.322 525.857 826.368 527.07C826.413 528.284 826.714 529.083 827.008 529.747C827.303 530.411 827.733 531.07 828.433 531.719C829.132 532.368 829.682 532.617 830.506 532.991C831.19 533.235 832.004 533.34 833.223 533.429C834.436 533.384 834.841 533.369 837.807 533.257C840.774 533.146 841.178 533.131 842.392 533.085C843.605 533.04 844.404 532.74 845.068 532.445C845.732 532.15 846.391 531.72 847.04 531.02C847.689 530.321 847.938 529.771 848.313 528.947C848.557 528.263 848.661 527.449 848.751 526.23C848.705 525.017 848.69 524.612 848.579 521.646C848.467 518.679 848.452 518.275 848.407 517.061C848.361 515.848 848.061 515.049 847.766 514.385C847.471 513.721 847.041 513.062 846.342 512.413C845.642 511.764 845.093 511.515 844.269 511.141C843.584 510.896 842.77 510.792 841.552 510.702C840.338 510.748 840.069 510.758 836.967 510.874Z" fill="#007AFF"/>
<path d="M837.17 516.268C833.934 516.389 831.468 519.047 831.589 522.283C831.711 525.519 834.369 527.985 837.605 527.864C840.841 527.742 843.307 525.084 843.185 521.848C843.064 518.612 840.406 516.146 837.17 516.268ZM837.529 525.841C835.506 525.917 833.693 524.365 833.612 522.208C833.536 520.185 835.088 518.371 837.246 518.29C839.268 518.215 841.082 519.767 841.163 521.924C841.239 523.947 839.552 525.765 837.529 525.841Z" fill="#007AFF"/>
<path d="M843.148 517.259C843.893 517.231 844.474 516.604 844.446 515.86C844.418 515.115 843.791 514.534 843.047 514.562C842.302 514.59 841.721 515.216 841.749 515.961C841.777 516.706 842.403 517.287 843.148 517.259Z" fill="#007AFF"/>
<path d="M818.529 244.944C821.426 244.293 821.821 244.204 823.005 243.938C824.059 243.702 824.644 243.847 825.069 243.89C825.655 244.035 826.079 244.078 826.563 244.384C827.046 244.69 827.398 245.026 827.648 245.523C827.869 245.888 828.119 246.385 828.487 247.409C828.753 248.594 828.812 248.857 829.492 251.885C830.173 254.913 830.232 255.176 830.498 256.361C830.734 257.414 830.589 258 830.546 258.425C830.401 259.01 830.358 259.435 830.052 259.919C829.746 260.402 829.41 260.754 828.913 261.004C828.548 261.225 828.051 261.475 827.027 261.843C825.842 262.109 825.579 262.168 822.551 262.848C819.523 263.528 819.26 263.587 818.075 263.854C817.022 264.09 816.436 263.945 816.011 263.902C815.426 263.757 815.001 263.714 814.517 263.408C814.034 263.102 813.682 262.766 813.432 262.269C813.211 261.904 812.962 261.407 812.593 260.383C812.327 259.198 812.268 258.935 811.588 255.907C810.908 252.879 810.849 252.616 810.582 251.431C810.346 250.377 810.491 249.792 810.534 249.367C810.679 248.781 810.722 248.357 811.028 247.873C811.334 247.39 811.67 247.038 812.167 246.788C812.532 246.567 813.03 246.317 814.053 245.949C815.238 245.683 815.633 245.594 818.529 244.944ZM818.086 242.969C815.058 243.649 814.794 243.708 813.61 243.974C812.425 244.24 811.694 244.681 811.095 245.092C810.496 245.504 809.926 246.046 809.416 246.852C808.905 247.659 808.76 248.244 808.543 249.123C808.427 249.84 808.473 250.66 808.608 251.874C808.874 253.059 808.963 253.454 809.613 256.35C810.293 259.378 810.352 259.642 810.619 260.826C810.885 262.011 811.325 262.742 811.737 263.341C812.148 263.94 812.691 264.51 813.497 265.02C814.303 265.531 814.888 265.676 815.767 265.893C816.485 266.009 817.304 265.963 818.518 265.828C819.703 265.562 820.098 265.474 822.995 264.823C825.891 264.172 826.286 264.084 827.471 263.818C828.656 263.551 829.386 263.111 829.985 262.699C830.585 262.288 831.154 261.746 831.664 260.939C832.175 260.133 832.32 259.548 832.537 258.669C832.653 257.952 832.607 257.132 832.473 255.918C832.206 254.733 832.118 254.338 831.467 251.442C830.817 248.545 830.728 248.15 830.462 246.965C830.196 245.781 829.755 245.05 829.344 244.451C828.933 243.852 828.39 243.282 827.584 242.772C826.777 242.261 826.192 242.116 825.313 241.899C824.596 241.783 823.776 241.829 822.562 241.963C821.377 242.23 821.114 242.289 818.086 242.969Z" fill="#007AFF"/>
<path d="M819.269 248.235C816.109 248.945 814.169 252.008 814.879 255.167C815.589 258.327 818.652 260.267 821.812 259.557C824.971 258.847 826.911 255.784 826.201 252.624C825.491 249.465 822.428 247.525 819.269 248.235ZM821.368 257.582C819.393 258.026 817.327 256.83 816.854 254.724C816.41 252.749 817.606 250.683 819.712 250.21C821.687 249.766 823.753 250.962 824.226 253.068C824.67 255.043 823.343 257.139 821.368 257.582Z" fill="#007AFF"/>
<path d="M825.327 248.119C826.054 247.955 826.511 247.234 826.348 246.506C826.185 245.779 825.463 245.322 824.736 245.486C824.009 245.649 823.552 246.371 823.715 247.098C823.878 247.825 824.6 248.282 825.327 248.119Z" fill="#007AFF"/>
<path d="M659.287 7.17155C661.888 8.6024 662.243 8.79752 663.307 9.38287C664.252 9.90318 664.595 10.3998 664.885 10.7131C665.228 11.2097 665.517 11.523 665.677 12.0728C665.836 12.6226 665.878 13.1074 665.736 13.6453C665.659 14.065 665.517 14.6029 665.115 15.6137C664.529 16.6777 664.399 16.9142 662.903 19.6332C661.408 22.3523 661.277 22.5888 660.692 23.6528C660.172 24.5986 659.675 24.9414 659.362 25.231C658.865 25.5738 658.552 25.8634 658.002 26.023C657.452 26.1825 656.968 26.2238 656.43 26.0819C656.01 26.005 655.472 25.8631 654.461 25.461C653.397 24.8756 653.161 24.7456 650.442 23.2497C647.723 21.7538 647.486 21.6237 646.422 21.0383C645.476 20.518 645.134 20.0214 644.844 19.7081C644.501 19.2115 644.212 18.8982 644.052 18.3484C643.892 17.7986 643.851 17.3139 643.993 16.7759C644.07 16.3562 644.212 15.8183 644.614 14.8075C645.199 13.7435 645.329 13.5071 646.825 10.788C648.321 8.06887 648.451 7.83243 649.037 6.76844C649.557 5.82266 650.054 5.47986 650.367 5.19023C650.863 4.84742 651.177 4.5578 651.727 4.39825C652.276 4.2387 652.761 4.19737 653.299 4.33931C653.719 4.4162 654.257 4.55814 655.267 4.96023C656.331 5.54558 656.686 5.74069 659.287 7.17155ZM660.263 5.39822C657.543 3.90233 657.307 3.77225 656.243 3.1869C655.179 2.60155 654.34 2.44776 653.618 2.35901C652.897 2.27026 652.111 2.29973 651.195 2.56565C650.278 2.83156 649.782 3.17437 649.037 3.68858C648.475 4.14961 647.967 4.7939 647.263 5.79285C646.678 6.85685 646.483 7.21151 645.052 9.81238C643.556 12.5315 643.426 12.7679 642.841 13.8319C642.255 14.8959 642.102 15.7353 642.013 16.4565C641.924 17.1777 641.953 17.9639 642.219 18.8802C642.485 19.7965 642.828 20.2931 643.342 21.038C643.803 21.5996 644.448 22.1081 645.447 22.8117C646.511 23.397 646.865 23.5921 649.466 25.023C652.067 26.4538 652.422 26.649 653.486 27.2343C654.55 27.8197 655.389 27.9735 656.11 28.0622C656.831 28.151 657.618 28.1215 658.534 27.8556C659.45 27.5897 659.947 27.2468 660.692 26.7326C661.253 26.2716 661.762 25.6273 662.465 24.6284C663.051 23.5644 663.246 23.2097 664.677 20.6088C666.108 18.008 666.303 17.6533 666.888 16.5893C667.473 15.5253 667.627 14.6859 667.716 13.9647C667.805 13.2435 667.775 12.4573 667.509 11.541C667.243 10.6247 666.901 10.1281 666.386 9.38321C665.925 8.82157 665.281 8.31311 664.282 7.60954C663.218 7.02419 662.982 6.89412 660.263 5.39822Z" fill="#007AFF"/>
<path d="M657.661 10.1271C654.824 8.56615 651.342 9.57662 649.781 12.4139C648.22 15.2513 649.23 18.7332 652.068 20.2941C654.905 21.8551 658.387 20.8446 659.948 18.0073C661.509 15.17 660.498 11.688 657.661 10.1271ZM653.043 18.5208C651.27 17.5452 650.514 15.2811 651.554 13.3895C652.53 11.6162 654.794 10.8598 656.685 11.9004C658.459 12.876 659.215 15.1402 658.175 17.0317C657.199 18.805 654.817 19.4964 653.043 18.5208Z" fill="#007AFF"/>
<path d="M662.277 14.0528C662.93 14.412 663.751 14.1739 664.11 13.521C664.469 12.868 664.231 12.0476 663.578 11.6884C662.925 11.3292 662.105 11.5673 661.746 12.2202C661.386 12.8731 661.625 13.6936 662.277 14.0528Z" fill="#007AFF"/>
<path d="M359.411 14.6825C362.307 14.0319 362.702 13.9432 363.887 13.677C364.94 13.4405 365.526 13.5855 365.951 13.6284C366.536 13.7734 366.961 13.8164 367.445 14.1226C367.928 14.4288 368.28 14.7646 368.53 15.2617C368.751 15.6271 369.001 16.1241 369.369 17.1477C369.635 18.3326 369.694 18.5959 370.374 21.6239C371.054 24.6518 371.113 24.9151 371.38 26.1C371.616 27.1532 371.471 27.7389 371.428 28.1634C371.283 28.7492 371.24 29.1737 370.934 29.6574C370.628 30.1411 370.292 30.4931 369.795 30.743C369.43 30.9634 368.933 31.2133 367.909 31.5815C366.724 31.8477 366.461 31.9068 363.433 32.5869C360.405 33.2671 360.142 33.3262 358.957 33.5924C357.903 33.8289 357.318 33.6839 356.893 33.641C356.307 33.496 355.883 33.453 355.399 33.1468C354.916 32.8406 354.564 32.5048 354.314 32.0077C354.093 31.6423 353.843 31.1453 353.475 30.1217C353.209 28.9368 353.15 28.6735 352.47 25.6455C351.79 22.6176 351.73 22.3543 351.464 21.1694C351.228 20.1162 351.373 19.5305 351.416 19.106C351.561 18.5202 351.604 18.0957 351.91 17.612C352.216 17.1283 352.552 16.7763 353.049 16.5264C353.414 16.306 353.911 16.0561 354.935 15.6879C356.12 15.4217 356.515 15.333 359.411 14.6825ZM358.968 12.7077C355.94 13.3878 355.676 13.447 354.491 13.7131C353.307 13.9793 352.576 14.42 351.977 14.8311C351.378 15.2423 350.808 15.7851 350.298 16.5912C349.787 17.3973 349.642 17.9831 349.425 18.8617C349.309 19.5791 349.355 20.3986 349.49 21.613C349.756 22.7979 349.844 23.1928 350.495 26.0891C351.175 29.1171 351.234 29.3804 351.5 30.5652C351.767 31.7501 352.207 32.4809 352.618 33.08C353.03 33.6791 353.572 34.2486 354.378 34.759C355.185 35.2694 355.77 35.4144 356.649 35.632C357.366 35.7474 358.186 35.7016 359.4 35.5671C360.585 35.301 360.98 35.2123 363.876 34.5617C366.773 33.9111 367.168 33.8224 368.352 33.5563C369.537 33.2901 370.268 32.8494 370.867 32.4383C371.466 32.0271 372.036 31.4843 372.546 30.6782C373.057 29.8721 373.202 29.2863 373.419 28.4077C373.535 27.6903 373.489 26.8708 373.354 25.6564C373.088 24.4715 373 24.0766 372.349 21.1803C371.698 18.284 371.61 17.889 371.344 16.7042C371.077 15.5193 370.637 14.7885 370.226 14.1894C369.814 13.5903 369.272 13.0208 368.465 12.5104C367.659 12 367.074 11.855 366.195 11.6374C365.478 11.522 364.658 11.5678 363.444 11.7023C362.259 11.9684 361.996 12.0276 358.968 12.7077Z" fill="#007AFF"/>
<path d="M360.15 17.9737C356.991 18.6834 355.051 21.7466 355.761 24.9063C356.471 28.0659 359.534 30.0054 362.694 29.2957C365.853 28.586 367.793 25.5228 367.083 22.3631C366.373 19.2035 363.31 17.264 360.15 17.9737ZM362.25 27.3209C360.275 27.7645 358.209 26.5691 357.736 24.4627C357.292 22.4879 358.488 20.4216 360.594 19.9485C362.569 19.5049 364.635 20.7003 365.108 22.8067C365.552 24.7815 364.225 26.8774 362.25 27.3209Z" fill="#007AFF"/>
<path d="M366.209 17.8574C366.936 17.6941 367.393 16.9723 367.23 16.2452C367.067 15.5181 366.345 15.0611 365.618 15.2244C364.891 15.3877 364.434 16.1096 364.597 16.8366C364.76 17.5637 365.482 18.0208 366.209 17.8574Z" fill="#007AFF"/>
<path d="M14.2551 442.863C17.8861 442.047 18.3813 441.936 19.8667 441.602C21.1871 441.305 21.9214 441.487 22.4536 441.541C23.188 441.723 23.7202 441.777 24.3266 442.161C24.9329 442.545 25.3742 442.966 25.6876 443.589C25.9638 444.047 26.2772 444.67 26.7388 445.953C27.0725 447.439 27.1466 447.769 27.9993 451.565C28.852 455.361 28.9261 455.691 29.2598 457.176C29.5564 458.497 29.3746 459.231 29.3207 459.763C29.1389 460.498 29.0851 461.03 28.7012 461.636C28.3172 462.243 27.8962 462.684 27.2731 462.997C26.8151 463.274 26.1919 463.587 24.9086 464.049C23.4232 464.382 23.0931 464.456 19.297 465.309C15.5009 466.162 15.1708 466.236 13.6854 466.57C12.365 466.866 11.6306 466.684 11.0984 466.63C10.3641 466.449 9.83188 466.395 9.22551 466.011C8.61915 465.627 8.17784 465.206 7.8645 464.583C7.58823 464.125 7.27489 463.502 6.81326 462.218C6.4796 460.733 6.40546 460.403 5.55278 456.607C4.7001 452.811 4.62595 452.481 4.2923 450.995C3.99571 449.675 4.17752 448.94 4.23134 448.408C4.41315 447.674 4.46698 447.142 4.8509 446.535C5.23483 445.929 5.65583 445.488 6.27895 445.174C6.73702 444.898 7.36013 444.585 8.64345 444.123C10.1289 443.789 10.624 443.678 14.2551 442.863ZM13.699 440.387C9.90288 441.239 9.57278 441.314 8.08735 441.647C6.60192 441.981 5.68578 442.533 4.93468 443.049C4.18359 443.564 3.46957 444.245 2.82969 445.256C2.18982 446.266 2.00802 447 1.73531 448.102C1.59058 449.001 1.64797 450.029 1.81658 451.551C2.15023 453.037 2.26145 453.532 3.07706 457.163C3.92974 460.959 4.00388 461.289 4.33754 462.774C4.6712 464.26 5.22373 465.176 5.73919 465.927C6.25465 466.678 6.93516 467.392 7.94577 468.032C8.95637 468.672 9.69071 468.854 10.7922 469.127C11.6916 469.271 12.719 469.214 14.2415 469.045C15.7269 468.712 16.222 468.6 19.8531 467.785C23.4841 466.969 23.9793 466.858 25.4647 466.524C26.9502 466.191 27.8663 465.638 28.6174 465.123C29.3685 464.607 30.0825 463.927 30.7224 462.916C31.3623 461.905 31.5441 461.171 31.8168 460.07C31.9615 459.17 31.9041 458.143 31.7355 456.62C31.4018 455.135 31.2906 454.64 30.475 451.009C29.6594 447.378 29.5482 446.883 29.2145 445.397C28.8809 443.912 28.3283 442.996 27.8129 442.244C27.2974 441.493 26.6169 440.779 25.6063 440.139C24.5957 439.5 23.8614 439.318 22.7599 439.045C21.8605 438.9 20.8331 438.958 19.3106 439.126C17.8252 439.46 17.4951 439.534 13.699 440.387Z" fill="#007AFF"/>
<path d="M15.1819 446.989C11.2207 447.878 8.78922 451.719 9.67898 455.68C10.5687 459.641 14.409 462.073 18.3702 461.183C22.3313 460.293 24.7629 456.453 23.8731 452.492C22.9833 448.531 19.1431 446.099 15.1819 446.989ZM17.8141 458.707C15.3384 459.263 12.7479 457.765 12.1547 455.124C11.5986 452.648 13.0972 450.058 15.738 449.464C18.2137 448.908 20.8042 450.407 21.3974 453.048C21.9535 455.523 20.2898 458.151 17.8141 458.707Z" fill="#007AFF"/>
<path d="M22.7777 446.843C23.6892 446.638 24.2622 445.733 24.0574 444.822C23.8527 443.91 22.9477 443.337 22.0362 443.542C21.1247 443.747 20.5517 444.652 20.7565 445.563C20.9612 446.475 21.8661 447.048 22.7777 446.843Z" fill="#007AFF"/>
</svg>
