<svg width="49" height="48" viewBox="0 0 49 48" fill="none" xmlns="http://www.w3.org/2000/svg">
<rect x="0.333008" width="48" height="48" rx="16" fill="#007AFF"/>
<path fill-rule="evenodd" clip-rule="evenodd" d="M25.1591 22H30.8351C31.3631 22 31.8171 22 32.1921 22.03C32.5871 22.063 32.9811 22.134 33.3591 22.327C33.9235 22.6146 34.3825 23.0735 34.6701 23.638C34.8631 24.016 34.9341 24.41 34.9661 24.805C34.9971 25.18 34.9971 25.635 34.9971 26.162V28.946C34.9971 29.385 34.9971 29.763 34.9761 30.076C34.9531 30.406 34.9041 30.736 34.7691 31.062C34.6183 31.4261 34.3973 31.7569 34.1186 32.0356C33.84 32.3142 33.5092 32.5352 33.1451 32.686C32.83 32.8088 32.4969 32.8788 32.1591 32.893C32.1051 32.8966 32.0511 32.8996 31.9971 32.902V34C31.997 34.1825 31.9469 34.3615 31.8523 34.5176C31.7577 34.6737 31.6222 34.8009 31.4605 34.8855C31.2987 34.9701 31.1169 35.0088 30.9348 34.9974C30.7526 34.986 30.577 34.925 30.4271 34.821L28.2501 33.308C27.9151 33.075 27.8471 33.032 27.7831 33.003C27.709 32.9696 27.6311 32.9454 27.5511 32.931C27.4821 32.918 27.4021 32.914 26.9941 32.914H25.1591C24.6311 32.914 24.1771 32.914 23.8021 32.884C23.4071 32.851 23.0131 32.78 22.6351 32.587C22.0708 32.2996 21.6119 31.8411 21.3241 31.277C21.1311 30.897 21.0601 30.505 21.0281 30.109C20.9971 29.735 20.9971 29.28 20.9971 28.753V26.162C20.9971 25.634 20.9971 25.18 21.0271 24.805C21.0601 24.41 21.1311 24.016 21.3241 23.638C21.6117 23.0735 22.0706 22.6146 22.6351 22.327C23.0131 22.134 23.4071 22.063 23.8021 22.031C24.1771 22 24.6321 22 25.1591 22Z" fill="url(#paint0_linear_1100_1452)"/>
<path d="M26.2381 13H18.7571C17.9521 13 17.2871 13 16.7471 13.044C16.1841 13.09 15.6671 13.189 15.1821 13.436C14.4295 13.8195 13.8176 14.4314 13.4341 15.184C13.1871 15.669 13.0881 16.186 13.0421 16.748C12.9971 17.29 12.9971 17.954 12.9971 18.758V23.521C12.9971 23.962 12.9971 24.29 13.0391 24.58C13.1638 25.4315 13.5599 26.2201 14.1684 26.8287C14.777 27.4372 15.5655 27.8333 16.4171 27.958C16.4891 27.968 16.5331 27.995 16.5531 28.011V29.589C16.5531 29.862 16.5531 30.129 16.5721 30.344C16.5881 30.534 16.6321 30.931 16.9141 31.259C17.0686 31.4391 17.2637 31.58 17.4832 31.67C17.7028 31.76 17.9406 31.7967 18.1771 31.777C18.6071 31.741 18.9171 31.491 19.0631 31.367L19.1931 31.252C19.1122 30.9305 19.059 30.6026 19.0341 30.272C18.9971 29.814 18.9971 29.284 18.9971 28.795V26.12C18.9971 25.631 18.9971 25.102 19.0341 24.643C19.0771 24.124 19.1821 23.438 19.5421 22.731C20.0213 21.7899 20.7861 21.0246 21.7271 20.545C22.4341 20.185 23.1201 20.08 23.6391 20.037C24.0981 20 24.6281 20 25.1171 20H30.8791C31.2451 20 31.6331 20 31.9981 20.015V18.76C31.9981 17.955 31.9981 17.29 31.9541 16.75C31.9081 16.187 31.8091 15.67 31.5621 15.185C31.1786 14.4324 30.5667 13.8205 29.8141 13.437C29.3291 13.19 28.8121 13.091 28.2501 13.045C27.7071 13 27.0421 13 26.2381 13Z" fill="url(#paint1_linear_1100_1452)"/>
<defs>
<linearGradient id="paint0_linear_1100_1452" x1="27.9971" y1="22" x2="27.9971" y2="34.9994" gradientUnits="userSpaceOnUse">
<stop stop-color="white"/>
<stop offset="1" stop-color="white" stop-opacity="0.8"/>
</linearGradient>
<linearGradient id="paint1_linear_1100_1452" x1="22.4976" y1="13" x2="22.4976" y2="31.7822" gradientUnits="userSpaceOnUse">
<stop stop-color="white"/>
<stop offset="1" stop-color="white" stop-opacity="0.8"/>
</linearGradient>
</defs>
</svg>
