<svg width="49" height="48" viewBox="0 0 49 48" fill="none" xmlns="http://www.w3.org/2000/svg">
<rect x="0.666748" width="48" height="48" rx="16" fill="#007AFF"/>
<path d="M19.8007 13H19.7397C19.5127 12.999 19.2267 12.998 18.9517 13.077C18.7131 13.1451 18.4893 13.257 18.2917 13.407C18.0637 13.58 17.8927 13.809 17.7577 13.991L17.7207 14.04L16.2507 16C16.1137 16.182 16.0457 16.273 16.0207 16.36C15.9877 16.4808 16.0003 16.6096 16.0562 16.7218C16.1121 16.8339 16.2073 16.9215 16.3237 16.968C16.4097 17 16.5237 17 16.7547 17H33.2467C33.4767 17 33.5917 17 33.6767 16.968C33.7932 16.9217 33.8887 16.8342 33.9448 16.722C34.0008 16.6099 34.0136 16.481 33.9807 16.36C33.9557 16.273 33.8877 16.182 33.7507 16L32.2807 14.04L32.2437 13.99C32.1087 13.809 31.9377 13.58 31.7097 13.407C31.5121 13.257 31.2883 13.1451 31.0497 13.077C30.7747 12.998 30.4897 12.999 30.2627 13H19.8007Z" fill="url(#paint0_linear_1100_1431)"/>
<path fill-rule="evenodd" clip-rule="evenodd" d="M34.9988 20.6C34.9988 20.04 34.9988 19.76 34.8898 19.546C34.7939 19.3578 34.6409 19.2049 34.4528 19.109C34.2388 19 33.9588 19 33.3988 19H16.5988C16.0388 19 15.7588 19 15.5448 19.109C15.3566 19.2049 15.2037 19.3578 15.1078 19.546C14.9988 19.76 14.9988 20.04 14.9988 20.6V30.838C14.9988 31.365 14.9988 31.82 15.0288 32.195C15.0618 32.59 15.1328 32.983 15.3258 33.362C15.6136 33.9261 16.0725 34.3846 16.6368 34.672C17.0148 34.866 17.4088 34.937 17.8038 34.969C18.1788 34.999 18.6338 34.999 19.1598 34.999H30.8388C31.3658 34.999 31.8208 34.999 32.1948 34.969C32.5898 34.937 32.9838 34.866 33.3618 34.673C33.9262 34.3854 34.3852 33.9265 34.6728 33.362C34.8658 32.983 34.9368 32.59 34.9698 32.195C34.9998 31.82 34.9998 31.365 34.9998 30.838L34.9988 20.6ZM20.9988 22C21.264 22 21.5183 22.1054 21.7059 22.2929C21.8934 22.4804 21.9988 22.7348 21.9988 23C21.9988 23.7956 22.3148 24.5587 22.8775 25.1213C23.4401 25.6839 24.2031 26 24.9988 26C25.7944 26 26.5575 25.6839 27.1201 25.1213C27.6827 24.5587 27.9988 23.7956 27.9988 23C27.9988 22.7348 28.1041 22.4804 28.2917 22.2929C28.4792 22.1054 28.7336 22 28.9988 22C29.264 22 29.5184 22.1054 29.7059 22.2929C29.8934 22.4804 29.9988 22.7348 29.9988 23C29.9988 24.3261 29.472 25.5979 28.5343 26.5355C27.5966 27.4732 26.3249 28 24.9988 28C23.6727 28 22.4009 27.4732 21.4632 26.5355C20.5256 25.5979 19.9988 24.3261 19.9988 23C19.9988 22.7348 20.1041 22.4804 20.2917 22.2929C20.4792 22.1054 20.7336 22 20.9988 22Z" fill="url(#paint1_linear_1100_1431)"/>
<defs>
<linearGradient id="paint0_linear_1100_1431" x1="25.0006" y1="12.9998" x2="25.0006" y2="17" gradientUnits="userSpaceOnUse">
<stop stop-color="white"/>
<stop offset="1" stop-color="white" stop-opacity="0.8"/>
</linearGradient>
<linearGradient id="paint1_linear_1100_1431" x1="24.9993" y1="19" x2="24.9993" y2="34.999" gradientUnits="userSpaceOnUse">
<stop stop-color="white"/>
<stop offset="1" stop-color="white" stop-opacity="0.8"/>
</linearGradient>
</defs>
</svg>
