<svg width="48" height="48" viewBox="0 0 48 48" fill="none" xmlns="http://www.w3.org/2000/svg">
<rect width="48" height="48" rx="16" fill="#007AFF"/>
<path d="M26.0878 13.6173C26.0376 13.7386 26.0117 13.8687 26.0117 14V15.5C26.0117 15.7652 26.1171 16.0196 26.3046 16.2071C26.4921 16.3946 26.7465 16.5 27.0117 16.5C27.2769 16.5 27.5313 16.3946 27.7188 16.2071C27.9064 16.0196 28.0117 15.7652 28.0117 15.5V14C28.0117 13.8687 27.9859 13.7386 27.9356 13.6173C27.8853 13.496 27.8117 13.3858 27.7188 13.2929C27.626 13.2 27.5157 13.1264 27.3944 13.0761C27.2731 13.0259 27.143 13 27.0117 13C26.8804 13 26.7504 13.0259 26.629 13.0761C26.5077 13.1264 26.3975 13.2 26.3046 13.2929C26.2118 13.3858 26.1381 13.496 26.0878 13.6173Z" fill="url(#paint0_linear_1100_1442)"/>
<path d="M32.0067 15.0123C31.7445 15.01 31.4919 15.1108 31.3033 15.293L30.2423 16.354C30.1468 16.4463 30.0707 16.5567 30.0184 16.6787C29.9661 16.8008 29.9386 16.932 29.9375 17.0648C29.9365 17.1976 29.9619 17.3292 30.0122 17.4521C30.0626 17.5749 30.1369 17.6865 30.2309 17.7804C30.3249 17.8742 30.4366 17.9484 30.5595 17.9986C30.6824 18.0488 30.8141 18.074 30.9469 18.0727C31.0797 18.0715 31.2109 18.0438 31.3328 17.9913C31.4548 17.9388 31.5651 17.8626 31.6573 17.767L32.7173 16.707C32.8994 16.5184 33.0002 16.2658 32.9979 16.0036C32.9957 15.7414 32.8905 15.4906 32.7051 15.3052C32.5197 15.1198 32.2689 15.0146 32.0067 15.0123Z" fill="url(#paint1_linear_1100_1442)"/>
<path d="M30.242 24.293C30.0545 24.4805 29.9492 24.7348 29.9492 25C29.9492 25.2651 30.0545 25.5195 30.242 25.707L31.303 26.767C31.4923 26.9448 31.7434 27.0419 32.0031 27.0379C32.2628 27.0339 32.5107 26.929 32.6944 26.7454C32.8781 26.5618 32.9832 26.3139 32.9874 26.0543C32.9916 25.7946 32.8947 25.5434 32.717 25.354L31.657 24.293C31.5641 24.2 31.4538 24.1262 31.3324 24.0759C31.211 24.0256 31.0809 23.9997 30.9495 23.9997C30.8181 23.9997 30.688 24.0256 30.5666 24.0759C30.4452 24.1262 30.3349 24.2 30.242 24.293Z" fill="url(#paint2_linear_1100_1442)"/>
<path d="M21.0252 16.3825C21.0754 16.5038 21.1491 16.6141 21.2419 16.707L22.3029 17.768C22.4906 17.9555 22.745 18.0608 23.0103 18.0607C23.1416 18.0607 23.2717 18.0348 23.393 17.9845C23.5143 17.9341 23.6246 17.8604 23.7174 17.7675C23.9049 17.5799 24.0102 17.3254 24.0101 17.0602C24.01 16.7949 23.9046 16.5405 23.7169 16.353L22.6569 15.293C22.5641 15.2001 22.4538 15.1264 22.3325 15.0761C22.2112 15.0258 22.0811 14.9999 21.9498 14.9998C21.8184 14.9998 21.6884 15.0256 21.567 15.0758C21.4456 15.126 21.3353 15.1997 21.2424 15.2925C21.1495 15.3854 21.0758 15.4956 21.0255 15.6169C20.9752 15.7383 20.9493 15.8683 20.9492 15.9997C20.9492 16.131 20.975 16.2611 21.0252 16.3825Z" fill="url(#paint3_linear_1100_1442)"/>
<path d="M34.0117 20H32.5117C32.2465 20 31.9921 20.1054 31.8046 20.2929C31.6171 20.4804 31.5117 20.7348 31.5117 21C31.5117 21.2652 31.6171 21.5196 31.8046 21.7071C31.9921 21.8946 32.2465 22 32.5117 22H34.0117C34.2769 22 34.5313 21.8946 34.7188 21.7071C34.9064 21.5196 35.0117 21.2652 35.0117 21C35.0117 20.7348 34.9064 20.4804 34.7188 20.2929C34.5313 20.1054 34.2769 20 34.0117 20Z" fill="url(#paint4_linear_1100_1442)"/>
<path fill-rule="evenodd" clip-rule="evenodd" d="M26.1179 19.012C25.7163 18.8815 25.2836 18.8815 24.8819 19.012C24.5919 19.106 24.3709 19.266 24.1959 19.414C24.0419 19.544 23.8757 19.7102 23.7038 19.8821L14.3814 29.2046C14.2105 29.3754 14.0437 29.5421 13.9139 29.695C13.7659 29.87 13.6059 30.092 13.5119 30.382C13.3814 30.7837 13.3814 31.2163 13.5119 31.618C13.5992 31.871 13.7358 32.1042 13.9139 32.304C14.07 32.4809 14.2328 32.6517 14.4019 32.816L15.1839 33.598C15.2017 33.6157 15.2194 33.6333 15.237 33.6508C15.3971 33.8103 15.5518 33.9644 15.6959 34.086C15.8957 34.2641 16.1289 34.4007 16.3819 34.488C16.7839 34.618 17.2159 34.618 17.6179 34.488C17.8713 34.4008 18.1048 34.2642 18.3049 34.086C18.4639 33.951 18.6379 33.777 18.8159 33.598L28.0979 24.316C28.1156 24.2983 28.1332 24.2806 28.1508 24.2629C28.3102 24.1028 28.4643 23.9481 28.5859 23.804C28.7339 23.629 28.8939 23.408 28.9879 23.118C29.1184 22.7163 29.1184 22.2837 28.9879 21.882C28.8939 21.592 28.7339 21.37 28.5859 21.195C28.4509 21.036 28.2769 20.862 28.0979 20.684L27.2954 19.8814C27.1245 19.7106 26.9578 19.5438 26.8049 19.414C26.6299 19.266 26.4079 19.106 26.1179 19.012ZM24.4279 24.014C24.6259 24.212 24.7249 24.311 24.8389 24.348C24.9397 24.3808 25.0482 24.3808 25.1489 24.348C25.2615 24.3115 25.3594 24.2135 25.5524 24.0205L25.5599 24.013L26.5049 23.065C26.7029 22.868 26.8019 22.769 26.8379 22.655C26.8708 22.5543 26.8708 22.4457 26.8379 22.345C26.8016 22.2332 26.7057 22.1367 26.5161 21.9462L26.5049 21.935L26.0649 21.495C25.8669 21.297 25.7679 21.199 25.6539 21.161C25.5538 21.1286 25.446 21.1286 25.3459 21.161C25.2319 21.198 25.1319 21.297 24.9339 21.495L23.9869 22.44C23.7879 22.638 23.6889 22.737 23.6519 22.851C23.6193 22.9514 23.6193 23.0596 23.6519 23.16C23.6889 23.275 23.7879 23.374 23.9859 23.572L24.4279 24.014Z" fill="url(#paint5_linear_1100_1442)"/>
<defs>
<linearGradient id="paint0_linear_1100_1442" x1="24.2129" y1="13" x2="24.2129" y2="34.5855" gradientUnits="userSpaceOnUse">
<stop stop-color="white"/>
<stop offset="1" stop-color="white" stop-opacity="0.8"/>
</linearGradient>
<linearGradient id="paint1_linear_1100_1442" x1="24.2129" y1="13" x2="24.2129" y2="34.5855" gradientUnits="userSpaceOnUse">
<stop stop-color="white"/>
<stop offset="1" stop-color="white" stop-opacity="0.8"/>
</linearGradient>
<linearGradient id="paint2_linear_1100_1442" x1="24.2129" y1="13" x2="24.2129" y2="34.5855" gradientUnits="userSpaceOnUse">
<stop stop-color="white"/>
<stop offset="1" stop-color="white" stop-opacity="0.8"/>
</linearGradient>
<linearGradient id="paint3_linear_1100_1442" x1="24.2129" y1="13" x2="24.2129" y2="34.5855" gradientUnits="userSpaceOnUse">
<stop stop-color="white"/>
<stop offset="1" stop-color="white" stop-opacity="0.8"/>
</linearGradient>
<linearGradient id="paint4_linear_1100_1442" x1="24.2129" y1="13" x2="24.2129" y2="34.5855" gradientUnits="userSpaceOnUse">
<stop stop-color="white"/>
<stop offset="1" stop-color="white" stop-opacity="0.8"/>
</linearGradient>
<linearGradient id="paint5_linear_1100_1442" x1="24.2129" y1="13" x2="24.2129" y2="34.5855" gradientUnits="userSpaceOnUse">
<stop stop-color="white"/>
<stop offset="1" stop-color="white" stop-opacity="0.8"/>
</linearGradient>
</defs>
</svg>
